<svg width="100" height="100" viewBox="0 0 100 100" fill="none" xmlns="http://www.w3.org/2000/svg">
<path d="M73.15 97.2262C60.673 91.6932 52.003 76.903 52.003 61.1509C52.003 53.5291 52.996 51.3824 58.9195 46.1926C62.7237 42.8601 67.7085 39.5405 69.9965 38.8157C75.3685 37.1146 75.408 31.7406 70.0465 31.7406C67.787 31.7406 62.25 29.8632 57.7425 27.5688C50.7115 23.9899 48.708 23.7437 43.6445 25.8363C31.0455 31.043 29.375 39.486 35.9055 64.9607C38.3086 74.3356 39.2127 81.4741 38.1333 82.5512C35.866 84.8135 18.6128 77.4092 11.9843 71.3294C-4.64621 56.0752 -3.84071 25.7056 13.5827 11.08C28.3747 -1.3386 58.7672 -3.74071 77.7527 6.00836C89.5747 12.0787 98.5157 25.6058 99.8477 39.4377C100.961 51.0012 95.8128 62.7906 84.5207 74.5342L77.1887 82.1595L81.7132 90.0034C84.2017 94.3175 86.2377 98.3461 86.2377 98.9562C86.2377 100.901 79.3935 99.9949 73.15 97.2262Z" fill="black"/>
</svg>
